<svg xmlns="http://www.w3.org/2000/svg" x="0px" y="0px"
width="25" height="25"
viewBox="0 5 172 172"
style=" fill:#000000;"><g fill="none" fill-rule="nonzero" stroke="none" stroke-width="1" stroke-linecap="butt" stroke-linejoin="miter" stroke-miterlimit="10" stroke-dasharray="" stroke-dashoffset="0" font-family="none" font-weight="none" font-size="none" text-anchor="none" style="mix-blend-mode: normal"><path d="M0,172v-172h172v172z" fill="none"></path><g fill="#1abc9c"><path d="M85.73125,10.32c-36.38832,0 -56.15332,18.14928 -60.39484,55.47672l-13.85406,23.87172c-1.17304,2.10872 -1.47624,4.53537 -0.83984,6.81953c0.63984,2.31168 2.16774,4.22706 4.42094,5.47578l10.46109,5.2339l3.37281,23.3275c1.3932,8.71008 9.331,17.73885 19.135,17.39485h10.44765v13.76h68.8v-22.0375c0,-9.84184 3.33637,-19.81161 9.62125,-28.78313c1.11009,-1.54595 2.0694,-3.22824 2.9764,-4.95844c2.60065,-1.17702 4.60235,-3.67652 4.60235,-6.76578v-13.13515v-8.75453c0,-2.11073 0.63051,-3.4201 1.935,-5.0525c1.30449,-1.6324 3.35704,-3.38661 5.61687,-5.56984c4.51968,-4.36646 9.64813,-10.93351 9.64813,-22.21219c0,-18.80893 -15.45993,-34.09094 -34.4,-34.09094c-5.98554,0 -11.62255,1.53178 -16.53485,4.21266c-7.21966,-2.66754 -15.50891,-4.21266 -25.0139,-4.21266zM127.28,17.2c15.26041,0 27.52,12.15651 27.52,27.21094c0,9.3682 -3.47155,13.32518 -7.55187,17.26719c-2.04017,1.971 -4.28762,3.8183 -6.20813,6.22156c-1.92051,2.40326 -3.44,5.56207 -3.44,9.34578v8.75453h-6.88v-29.53563l9.31219,-9.31219c0.89867,-0.86281 1.26068,-2.14404 0.94641,-3.34956c-0.31427,-1.20552 -1.2557,-2.14696 -2.46122,-2.46122c-1.20552,-0.31427 -2.48675,0.04774 -3.34956,0.94641l-7.88781,7.88781l-7.88781,-7.88781c-0.64765,-0.66575 -1.53698,-1.04135 -2.46578,-1.04141c-1.39982,0.00037 -2.65984,0.84884 -3.18658,2.14577c-0.52674,1.29693 -0.21516,2.7837 0.78799,3.76001l9.31219,9.31219v29.53563h-6.88v-8.76125c0,-3.40311 -1.64568,-6.20738 -3.52063,-8.385c-1.87494,-2.17762 -4.04326,-3.99909 -6.06031,-6.06031c-4.03409,-4.12244 -7.61906,-8.78091 -7.61906,-18.38922c0,-15.0506 12.25959,-27.20422 27.52,-27.20422zM116.96,92.88h20.64v6.25515c0,0.51109 -0.118,0.62485 -0.98094,0.62485h-18.67813c-0.86859,0 -0.98094,-0.11376 -0.98094,-0.62485zM121.3339,106.64h11.88547c-0.81833,1.41157 -2.13208,2.50305 -3.71547,3.0436c-0.09976,0.0344 -0.19242,0.05638 -0.29562,0.08734c-0.61232,0.17888 -1.25404,0.30906 -1.92828,0.30906c-0.67424,0 -1.31252,-0.13018 -1.92828,-0.30906c-0.09976,-0.03096 -0.1993,-0.05294 -0.29562,-0.08734c-1.58645,-0.54159 -2.90376,-1.62946 -3.72219,-3.0436z"></path></g></g></svg>