<svg xmlns="http://www.w3.org/2000/svg" x="0px" y="0px"
width="25" height="25"
viewBox="0 5 172 172"
style=" fill:#000000;"><g fill="none" fill-rule="nonzero" stroke="none" stroke-width="1" stroke-linecap="butt" stroke-linejoin="miter" stroke-miterlimit="10" stroke-dasharray="" stroke-dashoffset="0" font-family="none" font-weight="none" font-size="none" text-anchor="none" style="mix-blend-mode: normal"><path d="M0,172v-172h172v172z" fill="none"></path><g fill="#1abc9c"><path d="M10.32,3.44c-3.78937,0 -6.88,3.09063 -6.88,6.88v72.24h79.12v-79.12zM89.44,3.44v79.12h79.12v-72.24c0,-3.78937 -3.09062,-6.88 -6.88,-6.88zM44.72,24.08c1.89469,0 3.44,1.54531 3.44,3.44v13.76h13.76c1.89469,0 3.44,1.54531 3.44,3.44c0,1.89469 -1.54531,3.44 -3.44,3.44h-13.76v13.76c0,1.89469 -1.54531,3.44 -3.44,3.44c-1.89469,0 -3.44,-1.54531 -3.44,-3.44v-13.76h-13.76c-1.89469,0 -3.44,-1.54531 -3.44,-3.44c0,-1.89469 1.54531,-3.44 3.44,-3.44h13.76v-13.76c0,-1.89469 1.54531,-3.44 3.44,-3.44zM113.52,41.28h34.4c1.90813,0 3.44,1.54531 3.44,3.44c0,1.89469 -1.53187,3.44 -3.44,3.44h-34.4c-1.90812,0 -3.44,-1.54531 -3.44,-3.44c0,-1.89469 1.53188,-3.44 3.44,-3.44zM3.44,89.44v72.24c0,3.78938 3.09063,6.88 6.88,6.88h72.24v-79.12zM89.44,89.44v79.12h72.24c3.78938,0 6.88,-3.09062 6.88,-6.88v-72.24zM32.5725,115.1325c0.87344,0 1.69313,0.29563 2.365,0.9675l9.7825,9.7825l9.7825,-9.7825c1.34375,-1.34375 3.49375,-1.34375 4.8375,0c1.34375,1.34375 1.34375,3.49375 0,4.8375l-9.7825,9.7825l9.7825,9.7825c1.34375,1.34375 1.34375,3.49375 0,4.8375c-0.67187,0.67188 -1.58562,0.9675 -2.4725,0.9675c-0.88687,0 -1.69312,-0.29562 -2.365,-0.9675l-9.7825,-9.7825l-9.7825,9.7825c-0.67187,0.67188 -1.47812,0.9675 -2.365,0.9675c-0.88687,0 -1.80062,-0.29562 -2.4725,-0.9675c-1.34375,-1.34375 -1.34375,-3.49375 0,-4.8375l9.7825,-9.7825l-9.7825,-9.7825c-1.34375,-1.34375 -1.34375,-3.49375 0,-4.8375c0.67188,-0.67187 1.59906,-0.9675 2.4725,-0.9675zM113.52,116.96h34.4c1.90813,0 3.44,1.53188 3.44,3.44c0,1.90813 -1.53187,3.44 -3.44,3.44h-34.4c-1.90812,0 -3.44,-1.53187 -3.44,-3.44c0,-1.90812 1.53188,-3.44 3.44,-3.44zM113.52,137.6h34.4c1.90813,0 3.44,1.53188 3.44,3.44c0,1.90813 -1.53187,3.44 -3.44,3.44h-34.4c-1.90812,0 -3.44,-1.53187 -3.44,-3.44c0,-1.90812 1.53188,-3.44 3.44,-3.44z"></path></g></g></svg>